<svg xmlns="http://www.w3.org/2000/svg" xmlns:xlink="http://www.w3.org/1999/xlink" width="180.53" height="273.186" viewBox="0 0 180.53 273.186">
  <defs>
    <filter id="Subtraction_3" x="0" y="0" width="180.53" height="273.186" filterUnits="userSpaceOnUse">
      <feOffset dy="3" input="SourceAlpha"/>
      <feGaussianBlur stdDeviation="3" result="blur"/>
      <feFlood flood-opacity="0.161"/>
      <feComposite operator="in" in2="blur"/>
      <feComposite in="SourceGraphic"/>
    </filter>
  </defs>
  <g id="Group_9" data-name="Group 9" transform="translate(-1201.42 -367.934)">
    <g transform="matrix(1, 0, 0, 1, 1201.42, 367.93)" filter="url(#Subtraction_3)">
      <path id="Subtraction_3-2" data-name="Subtraction 3" d="M-1908.445,253.7a70.223,70.223,0,0,1-9.865-.7c-42.26-6.026-71.065-38.143-71.678-79.918a119.81,119.81,0,0,1,11.694-53.32c6.595-13.968,14.1-28.13,22.93-43.3,10.607-18.2,21.5-36.172,32.03-53.556l.008-.014q1.6-2.64,3.22-5.316l.046-.076c3.466-5.719,7.047-11.629,10.566-17.508,6.988,11.855,14.161,23.552,21.1,34.863l.021.034c16.753,27.323,32.577,53.131,45.973,80.953,6.519,13.543,10.637,26.047,12.591,38.227a94.065,94.065,0,0,1-1.928,40.185,80.8,80.8,0,0,1-29.009,42.729C-1874.79,247.768-1891.729,253.7-1908.445,253.7Zm-.137-14.5a65.688,65.688,0,0,0,39.615-13.879,67.116,67.116,0,0,0,24.093-35.487,78.132,78.132,0,0,0,1.6-33.376c-1.622-10.117-5.043-20.5-10.457-31.749-11.122-23.1-24.261-44.53-38.171-67.218l-.028-.045v-.007c-5.744-9.367-11.684-19.052-17.516-28.946-2.966,4.952-5.967,9.9-8.869,14.692l-.3.493-2.322,3.833c-8.75,14.442-17.8,29.376-26.608,44.492-7.337,12.593-13.567,24.355-19.045,35.958a99.5,99.5,0,0,0-9.712,44.285c.51,34.7,24.433,61.369,59.531,66.375a58.337,58.337,0,0,0,8.193.58h0Z" transform="translate(1999.5 6.99)" fill="#63a4f8" stroke="rgba(112,112,112,0.1)" stroke-width="1"/>
    </g>
  </g>
</svg>
