<svg xmlns="http://www.w3.org/2000/svg" xmlns:xlink="http://www.w3.org/1999/xlink" width="1386.08" height="309" viewBox="0 0 1386.08 309">
  <defs>
    <filter id="Subtraction_3" x="0" y="20.061" width="189.536" height="286.49" filterUnits="userSpaceOnUse">
      <feOffset dy="3" input="SourceAlpha"/>
      <feGaussianBlur stdDeviation="3" result="blur"/>
      <feFlood flood-opacity="0.161"/>
      <feComposite operator="in" in2="blur"/>
      <feComposite in="SourceGraphic"/>
    </filter>
  </defs>
  <g id="Group_1" data-name="Group 1" transform="translate(-719.999 -327.157)">
    <g id="Group_9" data-name="Group 9" transform="translate(-476.92 -11.912)">
      <g transform="matrix(1, 0, 0, 1, 1196.92, 339.07)" filter="url(#Subtraction_3)">
        <path id="Subtraction_3-2" data-name="Subtraction 3" d="M-1908.445,253.7a70.223,70.223,0,0,1-9.865-.7c-42.26-6.026-71.065-38.143-71.678-79.918a119.81,119.81,0,0,1,11.694-53.32c6.595-13.968,14.1-28.13,22.93-43.3,10.607-18.2,21.5-36.172,32.03-53.556l.008-.014q1.6-2.64,3.22-5.316l.046-.076c3.466-5.719,7.047-11.629,10.566-17.508,6.988,11.855,14.161,23.552,21.1,34.863l.021.034c16.753,27.323,32.577,53.131,45.973,80.953,6.519,13.543,10.637,26.047,12.591,38.227a94.065,94.065,0,0,1-1.928,40.185,80.8,80.8,0,0,1-29.009,42.729C-1874.79,247.768-1891.729,253.7-1908.445,253.7Zm-.137-14.5c14.368-.169,24.369-10.927,35.7-19.761,11.7-8.875,24.074-15.459,28.007-29.6,2.934-10.88-13.992-24.654-15.872-35.765-1.622-10.117,12.429-18.111,7.015-29.36-11.122-23.1-24.261-44.53-38.171-67.218l-.028-.045v-.007c-5.744-9.367-11.684-19.052-17.516-28.946-2.966,4.952-5.967,9.9-8.869,14.692l21.444-8.3c-.779,1.285,55.241,148.548,54.471,149.819-8.75,14.442-45.663,38.8-54.471,53.913-7.337,12.593-48.89-24.9-54.368-13.3-6.6,13.818-25.277-68.387-25.063-53.075.51,34.7,24.433,61.369,59.531,66.375a58.337,58.337,0,0,0,8.193.58h0Z" transform="translate(2004 35.85)" fill="#4090f7" stroke="#4090f7" stroke-width="10"/>
      </g>
    </g>
    <g id="Group_6" data-name="Group 6" transform="translate(639.08 -101.843)">
      <text id="INSULINE" transform="translate(321 683)" fill="#4090f7" font-size="257" font-family="Lato-Regular, Lato"><tspan x="0" y="0">INSULINE</tspan></text>
    </g>
  </g>
</svg>
